<svg width="1000" height="1000" viewBox="0 0 20 20" fill="none" xmlns="http://www.w3.org/2000/svg">
  <g id="arrow right">
    <path id="icon"
      d="M10.2441 5.58921C9.91863 5.26378 9.91863 4.73614 10.2441 4.4107C10.5695 4.08527 11.0971 4.08527 11.4226 4.4107L16.4188 9.40692C16.4213 9.40943 16.4239 9.41197 16.4264 9.41452L16.7172 9.70533C16.8799 9.86805 16.8799 10.1319 16.7172 10.2946L16.4264 10.5854C16.4239 10.588 16.4213 10.5905 16.4188 10.593L11.4226 15.5892C11.0971 15.9147 10.5695 15.9147 10.2441 15.5892C9.91863 15.2638 9.91863 14.7361 10.2441 14.4107L13.8215 10.8333H4.16668C3.70644 10.8333 3.33334 10.4602 3.33334 9.99996C3.33334 9.53972 3.70644 9.16663 4.16668 9.16663H13.8215L10.2441 5.58921Z"
      fill="currentColor" />
  </g>
</svg>