<svg width="1000" height="1000" viewBox="0 0 20 20" fill="none" xmlns="http://www.w3.org/2000/svg">
  <g id="cross">
    <path id="icon"
      d="M15.1725 13.9939C15.498 14.3193 15.498 14.8469 15.1725 15.1724C14.8471 15.4978 14.3195 15.4978 13.994 15.1724L9.99998 11.1784L6.00604 15.1724C5.68061 15.4978 5.15297 15.4978 4.82753 15.1724C4.50209 14.8469 4.50209 14.3193 4.82752 13.9939L8.82146 9.99986L4.82736 6.00583C4.50192 5.68039 4.50192 5.15276 4.82736 4.82733C5.1528 4.50189 5.68044 4.50189 6.00588 4.82733L9.99996 8.82134L13.9939 4.82734C14.3193 4.5019 14.847 4.5019 15.1724 4.82733C15.4978 5.15277 15.4978 5.6804 15.1724 6.00584L11.1785 9.99984L15.1725 13.9939Z"
      fill="currentColor" />
  </g>
</svg>