<svg width="1000" height="1000" viewBox="0 0 20 20" fill="none" xmlns="http://www.w3.org/2000/svg">
  <path
    d="M4.99996 6.66665C4.99996 6.20641 5.37306 5.83331 5.83329 5.83331H14.1666C14.6269 5.83331 15 6.20641 15 6.66665C15 7.12688 14.6269 7.49998 14.1666 7.49998H5.83329C5.37306 7.49998 4.99996 7.12688 4.99996 6.66665Z"
    fill="currentColor" />
  <path
    d="M4.99996 9.99998C4.99996 9.53974 5.37306 9.16665 5.83329 9.16665H9.99996C10.4602 9.16665 10.8333 9.53974 10.8333 9.99998C10.8333 10.4602 10.4602 10.8333 9.99996 10.8333H5.83329C5.37306 10.8333 4.99996 10.4602 4.99996 9.99998Z"
    fill="currentColor" />
  <path fill-rule="evenodd" clip-rule="evenodd"
    d="M1.66663 12.0833C1.66663 13.464 2.78591 14.5833 4.16663 14.5833H6.66663V16.8298C6.66663 17.4843 7.38659 17.8833 7.94163 17.5364L12.6666 14.5833H15.8333C17.214 14.5833 18.3333 13.464 18.3333 12.0833V4.58331C18.3333 3.2026 17.214 2.08331 15.8333 2.08331H4.16663C2.78591 2.08331 1.66663 3.2026 1.66663 4.58331V12.0833ZM8.33329 15.3262V12.9166H4.16663C3.70639 12.9166 3.33329 12.5436 3.33329 12.0833V4.58331C3.33329 4.12308 3.70639 3.74998 4.16663 3.74998H15.8333C16.2935 3.74998 16.6666 4.12308 16.6666 4.58331V12.0833C16.6666 12.5435 16.2935 12.9166 15.8333 12.9166H12.1886L8.33329 15.3262Z"
    fill="currentColor" />
</svg>