<svg width="1000" height="1000" viewBox="0 0 16 16" fill="none" xmlns="http://www.w3.org/2000/svg">
  <g id="clock">
    <g id="icon">
      <path
        d="M7.99998 3.99998C8.36817 3.99998 8.66665 4.29846 8.66665 4.66665V7.33331H9.99998C10.3682 7.33331 10.6666 7.63179 10.6666 7.99998C10.6666 8.36817 10.3682 8.66665 9.99998 8.66665H7.99998C7.63179 8.66665 7.33331 8.36817 7.33331 7.99998V4.66665C7.33331 4.29846 7.63179 3.99998 7.99998 3.99998Z"
        fill="currentColor" />
      <path fill-rule="evenodd" clip-rule="evenodd"
        d="M7.99998 14.6666C11.6819 14.6666 14.6666 11.6819 14.6666 7.99998C14.6666 4.31808 11.6819 1.33331 7.99998 1.33331C4.31808 1.33331 1.33331 4.31808 1.33331 7.99998C1.33331 11.6819 4.31808 14.6666 7.99998 14.6666ZM7.99998 13.3333C10.9455 13.3333 13.3333 10.9455 13.3333 7.99998C13.3333 5.05446 10.9455 2.66665 7.99998 2.66665C5.05446 2.66665 2.66665 5.05446 2.66665 7.99998C2.66665 10.9455 5.05446 13.3333 7.99998 13.3333Z"
        fill="currentColor" />
    </g>
  </g>
</svg>