<svg width="1000" height="1000" viewBox="0 0 28 28" fill="none" xmlns="http://www.w3.org/2000/svg">
  <path
    d="M9.33301 12.25C10.2995 12.25 11.083 11.4665 11.083 10.5C11.083 9.5335 10.2995 8.74999 9.33301 8.74999C8.36651 8.74999 7.58301 9.5335 7.58301 10.5C7.58301 11.4665 8.36651 12.25 9.33301 12.25Z"
    fill="currentColor" />
  <path fill-rule="evenodd" clip-rule="evenodd"
    d="M6.70801 3.20833C4.77501 3.20833 3.20801 4.77533 3.20801 6.70833V21.2917C3.20801 23.2247 4.77501 24.7917 6.70801 24.7917H21.2913C23.2243 24.7917 24.7913 23.2247 24.7913 21.2917V6.70833C24.7913 4.77533 23.2243 3.20833 21.2913 3.20833H6.70801ZM21.2913 5.54166H6.70801C6.06368 5.54166 5.54134 6.064 5.54134 6.70833V15.7712L8.45657 13.9772C8.65058 13.8578 8.89633 13.8623 9.08587 13.9886L12.1972 16.0628L17.1416 12.2172C17.3522 12.0534 17.6472 12.0534 17.8578 12.2172L22.458 15.7951V6.70833C22.458 6.064 21.9357 5.54166 21.2913 5.54166ZM5.54134 21.2917V18.5109L8.72453 16.552L12.3022 18.9372L17.4997 14.8947L22.458 18.7511V21.2917C22.458 21.936 21.9357 22.4583 21.2913 22.4583H6.70801C6.06367 22.4583 5.54134 21.936 5.54134 21.2917Z"
    fill="currentColor" />
</svg>