<svg width="1000" height="1000" viewBox="0 0 28 28" fill="none" xmlns="http://www.w3.org/2000/svg">
  <path fill-rule="evenodd" clip-rule="evenodd"
    d="M3.5 5.83325V22.1666C3.5 24.0996 5.067 25.6666 7 25.6666H21C22.933 25.6666 24.5 24.0996 24.5 22.1666V5.83325C24.5 3.90026 22.933 2.33325 21 2.33325H7C5.067 2.33325 3.5 3.90025 3.5 5.83325ZM19.8333 4.66659H21C21.6443 4.66659 22.1667 5.18892 22.1667 5.83325V7.58325H19.8333V4.66659ZM17.5 4.66659H10.5V12.8333H17.5V4.66659ZM8.16667 4.66659V7.58325H5.83333V5.83325C5.83333 5.18892 6.35567 4.66659 7 4.66659H8.16667ZM8.16667 12.8333V9.91659H5.83333V12.8333H8.16667ZM5.83333 20.4166V22.1666C5.83333 22.8109 6.35567 23.3333 7 23.3333H8.16667V20.4166H5.83333ZM8.16667 18.0833H5.83333V15.1666H8.16667V18.0833ZM10.5 23.3333H17.5V15.1666H10.5V23.3333ZM22.1667 9.91659V12.8333H19.8333V9.91659H22.1667ZM19.8333 15.1666V18.0833H22.1667V15.1666H19.8333ZM22.1667 22.1666V20.4166H19.8333V23.3333H21C21.6443 23.3333 22.1667 22.8109 22.1667 22.1666Z"
    fill="currentColor" />
</svg>