<svg width="1000" height="1000" viewBox="0 0 20 20" fill="none" xmlns="http://www.w3.org/2000/svg">
  <g id="reload">
    <path id="icon" fill-rule="evenodd" clip-rule="evenodd"
      d="M3.54167 10C3.54167 6.77834 6.15334 4.16667 9.375 4.16667C12.3354 4.16667 14.7808 6.37195 15.1579 9.22937L14.5476 8.61908C14.2222 8.29364 13.6945 8.29364 13.3691 8.61908C13.0436 8.94452 13.0436 9.47216 13.3691 9.79759L15.747 12.1756C15.9098 12.3383 16.1736 12.3383 16.3363 12.1756L18.7143 9.79759C19.0397 9.47216 19.0397 8.94452 18.7143 8.61908C18.3888 8.29364 17.8612 8.29364 17.5357 8.61908L16.8438 9.31105C16.496 5.49184 13.2849 2.5 9.375 2.5C5.23286 2.5 1.875 5.85786 1.875 10C1.875 14.1421 5.23286 17.5 9.375 17.5C11.7439 17.5 13.8566 16.4008 15.2297 14.6879C15.5175 14.3288 15.4598 13.8043 15.1007 13.5165C14.7416 13.2286 14.2171 13.2863 13.9293 13.6454C12.8589 14.9807 11.2168 15.8333 9.375 15.8333C6.15334 15.8333 3.54167 13.2217 3.54167 10Z"
      fill="currentColor" />
  </g>
</svg>