<svg width="1000" height="1000" viewBox="0 0 20 20" fill="none" xmlns="http://www.w3.org/2000/svg">
  <path fill-rule="evenodd" clip-rule="evenodd"
    d="M10 9.16669C12.0711 9.16669 13.75 7.48775 13.75 5.41669C13.75 3.34562 12.0711 1.66669 10 1.66669C7.92893 1.66669 6.25 3.34562 6.25 5.41669C6.25 7.48775 7.92893 9.16669 10 9.16669ZM10 7.50002C11.1506 7.50002 12.0833 6.56728 12.0833 5.41669C12.0833 4.26609 11.1506 3.33335 10 3.33335C8.84941 3.33335 7.91667 4.26609 7.91667 5.41669C7.91667 6.56728 8.84941 7.50002 10 7.50002Z"
    fill="currentColor" />
  <path
    d="M11.7308 11.6667C12.5643 11.6667 13.3398 11.9153 13.9871 12.3424C14.3713 12.5958 14.8955 12.6045 15.221 12.279C15.5464 11.9536 15.5494 11.4203 15.1807 11.1448C14.2185 10.4258 13.0244 10 11.7308 10H8.26923C5.08297 10 2.5 12.583 2.5 15.7693C2.5 16.7251 3.27489 17.5 4.23077 17.5H10C10.4602 17.5 10.8333 17.1269 10.8333 16.6667C10.8333 16.2064 10.4602 15.8334 10 15.8334H4.23077C4.19537 15.8334 4.16667 15.8047 4.16667 15.7693C4.16667 13.5035 6.00345 11.6667 8.26923 11.6667H11.7308Z"
    fill="currentColor" />
  <path
    d="M18.3346 13.0498C18.6382 12.7039 18.604 12.1774 18.2581 11.8738C17.9122 11.5701 17.3857 11.6044 17.0821 11.9503L14.3141 15.1036L13.1021 14.1395C12.7419 13.853 12.2177 13.9127 11.9312 14.2729C11.6447 14.6331 11.7044 15.1573 12.0646 15.4439L14.2085 17.1493C14.3824 17.2877 14.6344 17.2652 14.781 17.0981L18.3346 13.0498Z"
    fill="currentColor" />
</svg>